# xmcd CD database file
# Copyright (C) 1993-1996 Ti Kan
#
# Track frame offsets:
#  150
#  15394
#  30867
#  46732
#  61734
#  77997
#  100059
#  114267
#  126009
#  138313
#  150069
#  160852
#  175516
#  191821
#  209202
#  224296
#  239493
#  255625
#
# Disc length: 3567 seconds
#
# Revision: 1
# Processed by: cddbd v1.5.2PL0 Copyright (c) Steve Scherf et al.
# Submitted via: Advanced CD Ripper Pro 2.0
#
DISCID=e00ded12
DTITLE=Unknown Artist - Unknown Album
DYEAR=2003
DGENRE=
TTITLE0=Track01
TTITLE1=Track02
TTITLE2=NO ROMPAS MAS
TTITLE3=Track04
TTITLE4=Track05
TTITLE5=Track06
TTITLE6=Track07
TTITLE7=GONE COUNTRY
TTITLE8=Track9
TTITLE9=Track10
TTITLE10=Track11
TTITLE11=Track12
TTITLE12=Track13
TTITLE13=TELL ME MA
TTITLE14=COTON EYED JOE
TTITLE15=Track16
TTITLE16=Track17
TTITLE17=Track18
EXTD=
EXTT0=
EXTT1=
EXTT2=
EXTT3=
EXTT4=
EXTT5=
EXTT6=
EXTT7=
EXTT8=
EXTT9=
EXTT10=
EXTT11=
EXTT12=
EXTT13=
EXTT14=
EXTT15=
EXTT16=
EXTT17=
PLAYORDER=
